<?xml version="1.0" encoding="utf-8"?>
<svg width="20px" height="19px" viewbox="0 0 20 19" version="1.1" xmlns:xlink="http://www.w3.org/1999/xlink" xmlns="http://www.w3.org/2000/svg">
  <g id="Facebooksolid-Copy">
    <g id="LinkedIN">
      <path d="M4.32041 5.90839L4.32041 18.1647L0.241213 18.1647L0.241213 5.90839L4.32041 5.90839ZM4.58907 2.11702C4.58907 3.29385 3.70324 4.23551 2.28089 4.23551L2.25482 4.23551C0.885343 4.23551 0 3.29385 0 2.11702C0 0.915303 0.912308 0 2.30777 0C3.70324 0 4.5626 0.915303 4.58907 2.11702ZM19.0315 11.1373L19.0314 18.1647L14.9523 18.1647L14.9523 11.6076C14.9523 9.96054 14.3621 8.83667 12.8854 8.83667C11.7584 8.83667 11.0872 9.59433 10.7923 10.3261C10.6845 10.5884 10.658 10.9538 10.658 11.3201L10.658 18.165L6.57832 18.165C6.57832 18.165 6.63209 7.05878 6.57832 5.90871L10.658 5.90871L10.658 7.64471C11.1994 6.81019 12.1691 5.62058 14.3349 5.62058C17.0192 5.62058 19.0315 7.37269 19.0315 11.1373Z" transform="translate(0.15 1.5987212E-14)" id="Shape" fill="#222B45" fill-rule="evenodd" stroke="none" />
    </g>
  </g>
</svg>