<?xml version="1.0" encoding="utf-8"?>
<svg width="21px" height="20px" viewbox="0 0 21 20" version="1.1" xmlns:xlink="http://www.w3.org/1999/xlink" xmlns="http://www.w3.org/2000/svg">
  <g id="Facebooksolid-Copy-3">
    <path d="M16.5 0L4.5 0C2.01472 0 0 2.01472 0 4.5L0 15C0 17.4853 2.01472 19.5 4.5 19.5L16.5 19.5C18.9853 19.5 21 17.4853 21 15L21 4.5C21 2.01472 18.9853 0 16.5 0ZM16.5 2.25C17.7426 2.25 18.75 3.25736 18.75 4.5L18.75 15C18.75 16.2426 17.7426 17.25 16.5 17.25L4.5 17.25C3.25736 17.25 2.25 16.2426 2.25 15L2.25 4.5C2.25 3.25736 3.25736 2.25 4.5 2.25L16.5 2.25Z" id="Rectangle" fill="#222B45" stroke="none" />
    <path d="M5.25 0C2.35051 0 0 2.35051 0 5.25C0 8.1495 2.35051 10.5 5.25 10.5C8.1495 10.5 10.5 8.1495 10.5 5.25C10.5 2.35051 8.1495 0 5.25 0ZM5.25 2.25C6.90685 2.25 8.25 3.59315 8.25 5.25C8.25 6.90685 6.90685 8.25 5.25 8.25C3.59315 8.25 2.25 6.90685 2.25 5.25C2.25 3.59315 3.59315 2.25 5.25 2.25Z" transform="translate(5.25 4.5)" id="Oval" fill="#222B45" stroke="none" />
    <path d="M1.125 2.25C1.74632 2.25 2.25 1.74632 2.25 1.125C2.25 0.50368 1.74632 0 1.125 0C0.50368 0 0 0.50368 0 1.125C0 1.74632 0.50368 2.25 1.125 2.25Z" transform="translate(15 3)" id="Oval" fill="#222B45" fill-rule="evenodd" stroke="none" />
  </g>
</svg>