<?xml version="1.0" encoding="utf-8"?>
<svg width="18px" height="15px" viewbox="0 0 18 15" version="1.1" xmlns:xlink="http://www.w3.org/1999/xlink" xmlns="http://www.w3.org/2000/svg">
  <g id="Facebooksolid-Copy-2">
    <g id="Twitter">
      <path d="M8.4609 3.83063L8.49867 4.45347L7.86914 4.3772C5.57765 4.08485 3.57574 3.09339 1.876 1.42824L1.04502 0.602023L0.830981 1.21215C0.377719 2.57223 0.667303 4.00858 1.6116 4.97462C2.11523 5.50848 2.00191 5.58475 1.13316 5.26697C0.830981 5.16528 0.566578 5.08902 0.541397 5.12715C0.453263 5.21613 0.755438 6.37283 0.99466 6.83043C1.32202 7.46598 1.98932 8.08882 2.71958 8.45744L3.33652 8.74979L2.60626 8.76251C1.90118 8.76251 1.876 8.77522 1.95155 9.04215C2.20336 9.86837 3.19802 10.7454 4.30599 11.1268L5.08661 11.3937L4.40672 11.8004C3.39947 12.3851 2.21595 12.7156 1.03243 12.7411C0.465853 12.7538 0 12.8046 0 12.8427C0 12.9699 1.53606 13.6817 2.42999 13.9613C5.11179 14.7875 8.29722 14.4316 10.6894 13.0207C12.3892 12.0165 14.0889 10.0209 14.8821 8.08882C15.3102 7.05923 15.7383 5.17799 15.7383 4.27551C15.7383 3.6908 15.7761 3.61454 16.4811 2.91543C16.8966 2.50868 17.2869 2.06379 17.3625 1.93668C17.4884 1.69517 17.4758 1.69517 16.8337 1.91126C15.7635 2.29259 15.6124 2.24175 16.1412 1.66975C16.5315 1.263 16.9973 0.525757 16.9973 0.309669C16.9973 0.271536 16.8085 0.335091 16.5944 0.449491C16.3678 0.576601 15.8642 0.767267 15.4865 0.881666L14.8066 1.09775L14.1896 0.678289C13.8497 0.449491 13.3712 0.19527 13.1194 0.119004C12.4773 -0.0589506 11.4952 -0.0335285 10.9161 0.169848C9.34225 0.741844 8.34759 2.21632 8.4609 3.83063Z" transform="matrix(1 0 0 1 -9.947598E-14 2.7533531E-14)" id="Shape" fill="#222B45" fill-rule="evenodd" stroke="none" />
    </g>
  </g>
</svg>