<?xml version="1.0" encoding="utf-8"?>
<!-- Generator: Adobe Illustrator 19.0.0, SVG Export Plug-In . SVG Version: 6.00 Build 0)  -->
<svg version="1.1" id="Layer_1" xmlns="http://www.w3.org/2000/svg" xmlns:xlink="http://www.w3.org/1999/xlink" x="0px" y="0px"
	 viewBox="-271 369.6 64 37.9" style="enable-background:new -271 369.6 64 37.9;" xml:space="preserve">
<style type="text/css">
	.st0{fill:#CCBDAE;}
</style>
<g>
	<path class="st0" d="M-212.5,381.2c-3,0-5.5,2.5-5.5,5.5c0,0.6,0.1,1.2,0.3,1.8l-12.3,6.9l-7.3-15.1c2.1-0.7,3.7-2.8,3.7-5.2
		c0-3-2.4-5.5-5.5-5.5s-5.5,2.5-5.5,5.5c0,2.3,1.5,4.3,3.5,5.1l-7.3,15.2l-12.2-6.9c0.2-0.5,0.3-1.1,0.3-1.7c0-3-2.5-5.5-5.5-5.5
		c-3,0-5.5,2.5-5.5,5.5c0,3,2.5,5.5,5.5,5.5c0.3,0,0.6,0,0.9-0.1l5.7,15.4h39.8l5.7-15.4c0.3,0.1,0.6,0.1,0.9,0.1
		c3,0,5.5-2.5,5.5-5.5C-207,383.6-209.4,381.2-212.5,381.2z M-239.1,381l7.4,15.4c-0.1,0.1-7.8,4.4-7.4,4.1
		c-0.1-0.1-7.9-4.5-7.4-4.2L-239.1,381z M-220.5,405.4h-37l-5.2-14.1c0.5-0.3,1-0.7,1.4-1.2c4.5,2.5,20.5,11.5,22.3,12.6
		c0.8-0.4,18.6-10.5,22.4-12.6c0.4,0.5,0.9,0.9,1.4,1.2L-220.5,405.4z"/>
</g>
</svg>
