<?xml version="1.0" encoding="utf-8"?>
<svg width="18px" height="18px" viewbox="0 0 18 18" version="1.1" xmlns:xlink="http://www.w3.org/1999/xlink" xmlns="http://www.w3.org/2000/svg">
  <defs>
    <filter id="filter_1">
      <feColorMatrix in="SourceGraphic" type="matrix" values="0 0 0 0 0 0 0 0 0 0.47843137 0 0 0 0 1 0 0 0 1 0" />
    </filter>
    <path d="M12.75 13.5C12.3352 13.5 12 13.1648 12 12.75C12 12.3352 12.3352 12 12.75 12C13.1648 12 13.5 12.3352 13.5 12.75C13.5 13.1648 13.1648 13.5 12.75 13.5M12.75 10.5C11.5095 10.5 10.5 11.5095 10.5 12.75C10.5 13.9905 11.5095 15 12.75 15C13.9905 15 15 13.9905 15 12.75C15 11.5095 13.9905 10.5 12.75 10.5M7.5 13.5C7.08525 13.5 6.75 13.1648 6.75 12.75C6.75 12.3352 7.08525 12 7.5 12C7.91475 12 8.25 12.3352 8.25 12.75C8.25 13.1648 7.91475 13.5 7.5 13.5M7.5 10.5C6.2595 10.5 5.25 11.5095 5.25 12.75C5.25 13.9905 6.2595 15 7.5 15C8.7405 15 9.75 13.9905 9.75 12.75C9.75 11.5095 8.7405 10.5 7.5 10.5M2.25 13.5C1.83525 13.5 1.5 13.1648 1.5 12.75C1.5 12.3352 1.83525 12 2.25 12C2.66475 12 3 12.3352 3 12.75C3 13.1648 2.66475 13.5 2.25 13.5M2.25 10.5C1.0095 10.5 0 11.5095 0 12.75C0 13.9905 1.0095 15 2.25 15C3.4905 15 4.5 13.9905 4.5 12.75C4.5 11.5095 3.4905 10.5 2.25 10.5M12.75 8.25C12.3352 8.25 12 7.91475 12 7.5C12 7.08525 12.3352 6.75 12.75 6.75C13.1648 6.75 13.5 7.08525 13.5 7.5C13.5 7.91475 13.1648 8.25 12.75 8.25M12.75 5.25C11.5095 5.25 10.5 6.2595 10.5 7.5C10.5 8.7405 11.5095 9.75 12.75 9.75C13.9905 9.75 15 8.7405 15 7.5C15 6.2595 13.9905 5.25 12.75 5.25M7.5 8.25C7.08525 8.25 6.75 7.91475 6.75 7.5C6.75 7.08525 7.08525 6.75 7.5 6.75C7.91475 6.75 8.25 7.08525 8.25 7.5C8.25 7.91475 7.91475 8.25 7.5 8.25M7.5 5.25C6.2595 5.25 5.25 6.2595 5.25 7.5C5.25 8.7405 6.2595 9.75 7.5 9.75C8.7405 9.75 9.75 8.7405 9.75 7.5C9.75 6.2595 8.7405 5.25 7.5 5.25M2.25 8.25C1.83525 8.25 1.5 7.91475 1.5 7.5C1.5 7.08525 1.83525 6.75 2.25 6.75C2.66475 6.75 3 7.08525 3 7.5C3 7.91475 2.66475 8.25 2.25 8.25M2.25 5.25C1.0095 5.25 0 6.2595 0 7.5C0 8.7405 1.0095 9.75 2.25 9.75C3.4905 9.75 4.5 8.7405 4.5 7.5C4.5 6.2595 3.4905 5.25 2.25 5.25M12.75 1.5C13.1648 1.5 13.5 1.83525 13.5 2.25C13.5 2.66475 13.1648 3 12.75 3C12.3352 3 12 2.66475 12 2.25C12 1.83525 12.3352 1.5 12.75 1.5M12.75 4.5C13.9905 4.5 15 3.4905 15 2.25C15 1.0095 13.9905 0 12.75 0C11.5095 0 10.5 1.0095 10.5 2.25C10.5 3.4905 11.5095 4.5 12.75 4.5M7.5 3C7.08525 3 6.75 2.664 6.75 2.25C6.75 1.83525 7.08525 1.5 7.5 1.5C7.91475 1.5 8.25 1.83525 8.25 2.25C8.25 2.664 7.91475 3 7.5 3M7.5 0C6.2595 0 5.25 1.0095 5.25 2.25C5.25 3.4905 6.2595 4.5 7.5 4.5C8.7405 4.5 9.75 3.4905 9.75 2.25C9.75 1.0095 8.7405 0 7.5 0M2.25 3C1.83525 3 1.5 2.66475 1.5 2.25C1.5 1.83525 1.83525 1.5 2.25 1.5C2.66475 1.5 3 1.83525 3 2.25C3 2.66475 2.66475 3 2.25 3M2.25 0C1.0095 0 0 1.0095 0 2.25C0 3.4905 1.0095 4.5 2.25 4.5C3.4905 4.5 4.5 3.4905 4.5 2.25C4.5 1.0095 3.4905 0 2.25 0" transform="translate(1.5 1.5)" id="path_1" />
    <clipPath id="mask_1">
      <use xlink:href="#path_1" />
    </clipPath>
  </defs>
  <g id="IconLinecolor-palette" filter="url(#filter_1)">
    <path d="M12.75 13.5C12.3352 13.5 12 13.1648 12 12.75C12 12.3352 12.3352 12 12.75 12C13.1648 12 13.5 12.3352 13.5 12.75C13.5 13.1648 13.1648 13.5 12.75 13.5M12.75 10.5C11.5095 10.5 10.5 11.5095 10.5 12.75C10.5 13.9905 11.5095 15 12.75 15C13.9905 15 15 13.9905 15 12.75C15 11.5095 13.9905 10.5 12.75 10.5M7.5 13.5C7.08525 13.5 6.75 13.1648 6.75 12.75C6.75 12.3352 7.08525 12 7.5 12C7.91475 12 8.25 12.3352 8.25 12.75C8.25 13.1648 7.91475 13.5 7.5 13.5M7.5 10.5C6.2595 10.5 5.25 11.5095 5.25 12.75C5.25 13.9905 6.2595 15 7.5 15C8.7405 15 9.75 13.9905 9.75 12.75C9.75 11.5095 8.7405 10.5 7.5 10.5M2.25 13.5C1.83525 13.5 1.5 13.1648 1.5 12.75C1.5 12.3352 1.83525 12 2.25 12C2.66475 12 3 12.3352 3 12.75C3 13.1648 2.66475 13.5 2.25 13.5M2.25 10.5C1.0095 10.5 0 11.5095 0 12.75C0 13.9905 1.0095 15 2.25 15C3.4905 15 4.5 13.9905 4.5 12.75C4.5 11.5095 3.4905 10.5 2.25 10.5M12.75 8.25C12.3352 8.25 12 7.91475 12 7.5C12 7.08525 12.3352 6.75 12.75 6.75C13.1648 6.75 13.5 7.08525 13.5 7.5C13.5 7.91475 13.1648 8.25 12.75 8.25M12.75 5.25C11.5095 5.25 10.5 6.2595 10.5 7.5C10.5 8.7405 11.5095 9.75 12.75 9.75C13.9905 9.75 15 8.7405 15 7.5C15 6.2595 13.9905 5.25 12.75 5.25M7.5 8.25C7.08525 8.25 6.75 7.91475 6.75 7.5C6.75 7.08525 7.08525 6.75 7.5 6.75C7.91475 6.75 8.25 7.08525 8.25 7.5C8.25 7.91475 7.91475 8.25 7.5 8.25M7.5 5.25C6.2595 5.25 5.25 6.2595 5.25 7.5C5.25 8.7405 6.2595 9.75 7.5 9.75C8.7405 9.75 9.75 8.7405 9.75 7.5C9.75 6.2595 8.7405 5.25 7.5 5.25M2.25 8.25C1.83525 8.25 1.5 7.91475 1.5 7.5C1.5 7.08525 1.83525 6.75 2.25 6.75C2.66475 6.75 3 7.08525 3 7.5C3 7.91475 2.66475 8.25 2.25 8.25M2.25 5.25C1.0095 5.25 0 6.2595 0 7.5C0 8.7405 1.0095 9.75 2.25 9.75C3.4905 9.75 4.5 8.7405 4.5 7.5C4.5 6.2595 3.4905 5.25 2.25 5.25M12.75 1.5C13.1648 1.5 13.5 1.83525 13.5 2.25C13.5 2.66475 13.1648 3 12.75 3C12.3352 3 12 2.66475 12 2.25C12 1.83525 12.3352 1.5 12.75 1.5M12.75 4.5C13.9905 4.5 15 3.4905 15 2.25C15 1.0095 13.9905 0 12.75 0C11.5095 0 10.5 1.0095 10.5 2.25C10.5 3.4905 11.5095 4.5 12.75 4.5M7.5 3C7.08525 3 6.75 2.664 6.75 2.25C6.75 1.83525 7.08525 1.5 7.5 1.5C7.91475 1.5 8.25 1.83525 8.25 2.25C8.25 2.664 7.91475 3 7.5 3M7.5 0C6.2595 0 5.25 1.0095 5.25 2.25C5.25 3.4905 6.2595 4.5 7.5 4.5C8.7405 4.5 9.75 3.4905 9.75 2.25C9.75 1.0095 8.7405 0 7.5 0M2.25 3C1.83525 3 1.5 2.66475 1.5 2.25C1.5 1.83525 1.83525 1.5 2.25 1.5C2.66475 1.5 3 1.83525 3 2.25C3 2.66475 2.66475 3 2.25 3M2.25 0C1.0095 0 0 1.0095 0 2.25C0 3.4905 1.0095 4.5 2.25 4.5C3.4905 4.5 4.5 3.4905 4.5 2.25C4.5 1.0095 3.4905 0 2.25 0" transform="translate(1.5 1.5)" id="🎨-Icon-Сolor" fill="#222B45" fill-rule="evenodd" stroke="none" />
  </g>
</svg>