<?xml version="1.0" encoding="utf-8"?>
<svg width="22px" height="22px" viewbox="0 0 22 22" version="1.1" xmlns:xlink="http://www.w3.org/1999/xlink" xmlns="http://www.w3.org/2000/svg">
  <defs>
    <path d="M11.0173 6.10198L8.54691 3.63156L10.3326 1.84498L12.8021 4.31448L11.0173 6.10198ZM4.65657 12.4691L1.92765 12.7176L2.16965 10.0079L7.31857 4.85898L9.7899 7.33031L4.65657 12.4691ZM14.1202 3.03939L14.1193 3.03848L11.6095 0.528643C10.9302 -0.148773 9.76332 -0.180856 9.11982 0.465393L0.873488 8.71173C0.574655 9.00964 0.389488 9.40564 0.350988 9.82456L0.00357135 13.6471C-0.020262 13.9175 0.075988 14.1851 0.268488 14.3776C0.441738 14.5509 0.675488 14.6462 0.916571 14.6462C0.944988 14.6462 0.972488 14.6453 0.999988 14.6426L4.82249 14.2951C5.24232 14.2566 5.6374 14.0724 5.93532 13.7745L14.1826 5.52723C14.8499 4.85806 14.8215 3.74156 14.1202 3.03939L14.1202 3.03939Z" transform="translate(3.6663952 3.6868315)" id="path_1" />
    <clipPath id="mask_1">
      <use xlink:href="#path_1" />
    </clipPath>
  </defs>
  <g id="IconLineedit">
    <path d="M11.0173 6.10198L8.54691 3.63156L10.3326 1.84498L12.8021 4.31448L11.0173 6.10198ZM4.65657 12.4691L1.92765 12.7176L2.16965 10.0079L7.31857 4.85898L9.7899 7.33031L4.65657 12.4691ZM14.1202 3.03939L14.1193 3.03848L11.6095 0.528643C10.9302 -0.148773 9.76332 -0.180856 9.11982 0.465393L0.873488 8.71173C0.574655 9.00964 0.389488 9.40564 0.350988 9.82456L0.00357135 13.6471C-0.020262 13.9175 0.075988 14.1851 0.268488 14.3776C0.441738 14.5509 0.675488 14.6462 0.916571 14.6462C0.944988 14.6462 0.972488 14.6453 0.999988 14.6426L4.82249 14.2951C5.24232 14.2566 5.6374 14.0724 5.93532 13.7745L14.1826 5.52723C14.8499 4.85806 14.8215 3.74156 14.1202 3.03939L14.1202 3.03939Z" transform="translate(3.6663952 3.6868315)" id="🎨-Icon-Сolor" fill="#222B45" fill-rule="evenodd" stroke="none" />
  </g>
</svg>