<?xml version="1.0" encoding="utf-8"?>
<svg width="20px" height="20px" viewbox="0 0 20 20" version="1.1" xmlns:xlink="http://www.w3.org/1999/xlink" xmlns="http://www.w3.org/2000/svg">
  <defs>
    <filter id="filter_1">
      <feColorMatrix in="SourceGraphic" type="matrix" values="0 0 0 0 0 0 0 0 0 0.47843137 0 0 0 0 1 0 0 0 1 0" />
    </filter>
    <path d="M8.25288 2.74725e-05C10.677 -0.00580586 13.012 0.917527 14.6145 2.57086C16.0095 4.01003 16.7354 5.85753 16.6587 7.77419C16.5579 10.3359 14.2254 12.5009 11.5654 12.5009L10.1904 12.5009C9.96038 12.5009 9.77371 12.6884 9.77371 12.9175C9.77371 13.0134 9.81204 13.1125 9.88038 13.1884C10.3462 13.715 10.5187 14.41 10.3529 15.095C10.1287 16.0109 9.24704 16.6667 8.24704 16.6667L8.21538 16.6667C5.83704 16.6342 3.57954 15.5817 2.02288 13.7784C0.467044 11.9767 -0.243789 9.57586 0.074544 7.19253C0.615377 3.12669 4.13204 0.0350275 8.25204 2.74725e-05L8.25288 2.74725e-05ZM11.5654 10.8342L10.1904 10.8342C9.04121 10.8342 8.10704 11.7684 8.10704 12.9175C8.10704 13.4225 8.29371 13.9117 8.63288 14.295C8.73621 14.4117 8.77038 14.5492 8.73371 14.7017C8.69288 14.8725 8.49621 14.9834 8.23871 15C6.33621 14.9742 4.53038 14.1317 3.28371 12.6892C2.02121 11.2267 1.46788 9.35253 1.72621 7.41253C2.15204 4.21836 5.02454 1.69419 8.26704 1.66669L8.32954 1.66669C10.2937 1.66669 12.1445 2.41669 13.4187 3.73169C14.492 4.83919 15.052 6.25169 14.9937 7.70836C14.9279 9.37336 13.3254 10.8342 11.5654 10.8342ZM7.08129 3.75003C7.08129 3.06003 7.64129 2.50003 8.33129 2.50003C9.02129 2.50003 9.58129 3.06003 9.58129 3.75003C9.58129 4.44003 9.02129 5.00003 8.33129 5.00003C7.64129 5.00003 7.08129 4.44003 7.08129 3.75003ZM5.62296 4.33436C5.02546 3.98936 4.26046 4.19436 3.91546 4.79186C3.57046 5.39019 3.77546 6.15436 4.37296 6.49936C4.97129 6.84436 5.73546 6.64019 6.08046 6.04186C6.42546 5.44436 6.22129 4.67936 5.62296 4.33436ZM10.5821 6.04186C10.2371 5.44436 10.4421 4.67936 11.0396 4.33436C11.638 3.98936 12.4021 4.19436 12.7471 4.79186C13.0921 5.39019 12.8871 6.15436 12.2896 6.49936C11.6913 6.84436 10.9271 6.64019 10.5821 6.04186ZM3.12888 9.44903C2.74221 8.87736 2.89304 8.09986 3.46554 7.71403C4.03804 7.32736 4.81471 7.47903 5.20054 8.05069C5.58721 8.62319 5.43554 9.39986 4.86388 9.78569C4.29138 10.1724 3.51471 10.0215 3.12888 9.44903Z" transform="translate(1.6687059 1.6666391)" id="path_1" />
    <clipPath id="mask_1">
      <use xlink:href="#path_1" />
    </clipPath>
  </defs>
  <g id="IconLinecolor-palette" filter="url(#filter_1)">
    <path d="M8.25288 2.74725e-05C10.677 -0.00580586 13.012 0.917527 14.6145 2.57086C16.0095 4.01003 16.7354 5.85753 16.6587 7.77419C16.5579 10.3359 14.2254 12.5009 11.5654 12.5009L10.1904 12.5009C9.96038 12.5009 9.77371 12.6884 9.77371 12.9175C9.77371 13.0134 9.81204 13.1125 9.88038 13.1884C10.3462 13.715 10.5187 14.41 10.3529 15.095C10.1287 16.0109 9.24704 16.6667 8.24704 16.6667L8.21538 16.6667C5.83704 16.6342 3.57954 15.5817 2.02288 13.7784C0.467044 11.9767 -0.243789 9.57586 0.074544 7.19253C0.615377 3.12669 4.13204 0.0350275 8.25204 2.74725e-05L8.25288 2.74725e-05ZM11.5654 10.8342L10.1904 10.8342C9.04121 10.8342 8.10704 11.7684 8.10704 12.9175C8.10704 13.4225 8.29371 13.9117 8.63288 14.295C8.73621 14.4117 8.77038 14.5492 8.73371 14.7017C8.69288 14.8725 8.49621 14.9834 8.23871 15C6.33621 14.9742 4.53038 14.1317 3.28371 12.6892C2.02121 11.2267 1.46788 9.35253 1.72621 7.41253C2.15204 4.21836 5.02454 1.69419 8.26704 1.66669L8.32954 1.66669C10.2937 1.66669 12.1445 2.41669 13.4187 3.73169C14.492 4.83919 15.052 6.25169 14.9937 7.70836C14.9279 9.37336 13.3254 10.8342 11.5654 10.8342ZM7.08129 3.75003C7.08129 3.06003 7.64129 2.50003 8.33129 2.50003C9.02129 2.50003 9.58129 3.06003 9.58129 3.75003C9.58129 4.44003 9.02129 5.00003 8.33129 5.00003C7.64129 5.00003 7.08129 4.44003 7.08129 3.75003ZM5.62296 4.33436C5.02546 3.98936 4.26046 4.19436 3.91546 4.79186C3.57046 5.39019 3.77546 6.15436 4.37296 6.49936C4.97129 6.84436 5.73546 6.64019 6.08046 6.04186C6.42546 5.44436 6.22129 4.67936 5.62296 4.33436ZM10.5821 6.04186C10.2371 5.44436 10.4421 4.67936 11.0396 4.33436C11.638 3.98936 12.4021 4.19436 12.7471 4.79186C13.0921 5.39019 12.8871 6.15436 12.2896 6.49936C11.6913 6.84436 10.9271 6.64019 10.5821 6.04186ZM3.12888 9.44903C2.74221 8.87736 2.89304 8.09986 3.46554 7.71403C4.03804 7.32736 4.81471 7.47903 5.20054 8.05069C5.58721 8.62319 5.43554 9.39986 4.86388 9.78569C4.29138 10.1724 3.51471 10.0215 3.12888 9.44903Z" transform="translate(1.6687059 1.6666391)" id="🎨-Icon-Сolor" fill="#222B45" fill-rule="evenodd" stroke="none" />
  </g>
</svg>